<svg width="512" height="512" viewBox="0 0 512 512" fill="none" xmlns="http://www.w3.org/2000/svg">
<g clip-path="url(#clip0_975_1490)">
<path d="M314.707 189.118H427.219C474.494 189.118 511.998 228.265 511.998 275.539V427.198C512.077 438.354 509.939 449.415 505.707 459.738C501.475 470.061 495.233 479.44 487.345 487.33C479.457 495.22 470.08 501.464 459.758 505.699C449.436 509.933 438.376 512.075 427.219 511.998H314.707L342.419 472.851L423.955 446.782C438.633 441.875 448.403 427.198 448.403 412.542V288.595C448.403 273.939 438.633 259.262 423.955 254.355L342.398 228.265L314.665 189.118H314.707ZM63.5713 412.499C63.5713 427.177 73.3847 441.854 88.0407 446.761L169.577 471.209L197.31 510.355H84.7766C73.6202 510.432 62.5597 508.291 52.2379 504.056C41.9161 499.821 32.5388 493.577 24.6508 485.687C16.7627 477.797 10.5213 468.418 6.2892 458.096C2.05707 447.773 -0.0814261 436.712 -0.00201734 425.555V275.518C-0.00201734 228.243 37.502 189.118 84.798 189.118H197.289L169.598 228.243L88.0407 254.334C73.3633 259.241 63.5926 273.918 63.5926 288.595L63.5713 412.499Z" fill="#FF6A00"/>
<path d="M342.415 329.342H171.194V368.489H342.415V329.342Z" fill="#FF6A00"/>
</g>
<defs>
<clipPath id="clip0_975_1490">
<rect width="512" height="512" fill="white"/>
</clipPath>
</defs>
</svg>
