<svg width="512" height="512" viewBox="0 0 512 512" fill="none" xmlns="http://www.w3.org/2000/svg">
<g clip-path="url(#clip0_3749_33331)">
<mask id="mask0_3749_33331" style="mask-type:luminance" maskUnits="userSpaceOnUse" x="0" y="0" width="512" height="512">
<path d="M512 0H0V512H512V0Z" fill="white"/>
</mask>
<g mask="url(#mask0_3749_33331)">
<path d="M314.709 94.559H427.221C474.496 94.559 512 133.706 512 180.98V332.639C512.079 343.795 509.941 354.856 505.709 365.179C501.477 375.502 495.235 384.881 487.347 392.771C479.459 400.661 470.082 406.905 459.76 411.14C449.438 415.374 438.378 417.516 427.221 417.439H314.709L342.421 378.292L423.957 352.223C438.635 347.316 448.405 332.639 448.405 317.983V194.036C448.405 179.38 438.635 164.703 423.957 159.796L342.4 133.706L314.667 94.559H314.709ZM63.573 317.94C63.573 332.618 73.3864 347.295 88.0424 352.202L169.579 376.65L197.312 415.796H84.7783C73.6219 415.873 62.5614 413.732 52.2396 409.497C41.9178 405.262 32.5405 399.018 24.6525 391.128C16.7644 383.238 10.523 373.859 6.29091 363.537C2.05878 353.214 -0.0797171 342.153 -0.000308359 330.996V180.959C-0.000308359 133.684 37.5037 94.559 84.7997 94.559H197.291L169.6 133.684L88.0424 159.775C73.365 164.682 63.5943 179.359 63.5943 194.036L63.573 317.94Z" fill="#FF6A00"/>
<path d="M342.417 234.783H171.196V273.93H342.417V234.783Z" fill="#FF6A00"/>
</g>
</g>
<defs>
<clipPath id="clip0_3749_33331">
<rect width="512" height="512" fill="white"/>
</clipPath>
</defs>
</svg>
