<svg width="512" height="512" viewBox="0 0 512 512" fill="none" xmlns="http://www.w3.org/2000/svg">
<g clip-path="url(#clip0_383_139)">
<path d="M510.123 244.143C508.514 240.707 505.959 237.8 502.756 235.764C499.554 233.729 495.838 232.648 492.044 232.649H404.601L450.019 141.795C451.538 138.753 452.256 135.374 452.103 131.977C451.95 128.58 450.932 125.279 449.144 122.386C447.357 119.494 444.861 117.106 441.892 115.449C438.922 113.792 435.579 112.922 432.179 112.92H312.449C308.892 112.92 305.399 113.871 302.333 115.674C299.266 117.477 296.738 120.068 295.009 123.177L195.234 302.771C193.545 305.808 192.679 309.235 192.721 312.71C192.763 316.185 193.712 319.59 195.474 322.585C197.236 325.581 199.75 328.065 202.767 329.791C205.784 331.516 209.199 332.424 212.675 332.424H307.521L273.019 487.733C272.052 492.098 272.58 496.662 274.517 500.691C276.454 504.721 279.689 507.983 283.701 509.955C287.714 511.927 292.273 512.494 296.646 511.565C301.02 510.637 304.955 508.266 307.82 504.834L507.369 265.375C509.798 262.464 511.347 258.92 511.834 255.16C512.322 251.4 511.728 247.578 510.123 244.143Z" fill="url(#paint0_linear_383_139)"/>
</g>
<defs>
<linearGradient id="paint0_linear_383_139" x1="233.488" y1="183.62" x2="431.321" y2="381.453" gradientUnits="userSpaceOnUse">
<stop stop-color="#FBD87C"/>
<stop offset="1" stop-color="#F6C012"/>
</linearGradient>
<clipPath id="clip0_383_139">
<rect width="512" height="512" fill="white"/>
</clipPath>
</defs>
</svg>
