<svg width="153" height="512" viewBox="0 0 153 512" fill="none" xmlns="http://www.w3.org/2000/svg">
<g clip-path="url(#clip0_1027_909)">
<path d="M134.31 210.773L36.3904 112.853C32.3933 108.88 26.9863 106.65 21.3504 106.65C15.7144 106.65 10.3074 108.88 6.31036 112.853C4.31082 114.837 2.72375 117.196 1.64069 119.796C0.557621 122.395 0 125.184 0 128C0 130.816 0.557621 133.605 1.64069 136.204C2.72375 138.804 4.31082 141.163 6.31036 143.147L104.444 240.853C106.443 242.837 108.03 245.196 109.113 247.796C110.196 250.395 110.754 253.184 110.754 256C110.754 258.816 110.196 261.605 109.113 264.204C108.03 266.804 106.443 269.163 104.444 271.147L6.31036 368.853C2.29322 372.842 0.0251715 378.263 0.00516764 383.925C-0.0148362 389.586 2.21486 395.023 6.20372 399.04C10.1926 403.057 15.6138 405.325 21.2749 405.345C26.936 405.365 32.3732 403.136 36.3904 399.147L134.31 301.227C146.295 289.227 153.027 272.96 153.027 256C153.027 239.04 146.295 222.773 134.31 210.773Z" fill="black"/>
</g>
<defs>
<clipPath id="clip0_1027_909">
<rect width="153" height="512" fill="white"/>
</clipPath>
</defs>
</svg>
