<svg width="512" height="512" viewBox="0 0 512 512" fill="none" xmlns="http://www.w3.org/2000/svg">
<path d="M174.69 340.529L159.606 396.841L104.473 398.007C87.9962 367.447 78.6504 332.482 78.6504 295.325C78.6504 259.395 87.3885 225.513 102.877 195.679H102.889L151.973 204.677L173.474 253.467C168.974 266.586 166.521 280.67 166.521 295.325C166.523 311.231 169.404 326.47 174.69 340.529Z" fill="#FBBB00"/>
<path d="M508.214 254.848C510.702 267.955 512 281.491 512 295.325C512 310.838 510.369 325.969 507.262 340.565C496.714 390.234 469.153 433.604 430.974 464.296L430.962 464.284L369.138 461.13L360.388 406.508C385.722 391.651 405.521 368.4 415.95 340.565H300.088V254.848H417.64H508.214Z" fill="#518EF8"/>
<path d="M430.961 464.284L430.973 464.296C393.841 494.142 346.672 512 295.325 512C212.81 512 141.07 465.88 104.473 398.008L174.69 340.53C192.988 389.365 240.097 424.128 295.325 424.128C319.064 424.128 341.303 417.711 360.387 406.508L430.961 464.284Z" fill="#28B446"/>
<path d="M433.628 128.533L363.435 185.999C343.684 173.654 320.338 166.522 295.325 166.522C238.847 166.522 190.857 202.88 173.475 253.466L102.889 195.679H102.877C138.939 126.152 211.584 78.6504 295.325 78.6504C347.899 78.6504 396.103 97.3775 433.628 128.533Z" fill="#F14336"/>
</svg>
