<svg width="512" height="512" viewBox="0 0 512 512" fill="none" xmlns="http://www.w3.org/2000/svg">
<path d="M135.365 301.204L120.28 357.516L65.1476 358.682C48.671 328.122 39.3252 293.157 39.3252 256C39.3252 220.07 48.0633 186.188 63.5522 156.354H63.564L112.648 165.352L134.149 214.141C129.649 227.261 127.196 241.345 127.196 256C127.198 271.906 130.079 287.145 135.365 301.204Z" fill="#FBBB00"/>
<path d="M468.889 215.522C471.377 228.63 472.675 242.166 472.675 256C472.675 271.513 471.044 286.644 467.937 301.24C457.389 350.909 429.828 394.279 391.648 424.971L391.636 424.959L329.813 421.805L321.063 367.183C346.397 352.326 366.196 329.074 376.625 301.24H260.763V215.522H378.315H468.889Z" fill="#518EF8"/>
<path d="M391.636 424.959L391.648 424.971C354.516 454.817 307.347 472.675 256 472.675C173.485 472.675 101.744 426.554 65.1475 358.683L135.364 301.205C153.663 350.039 200.772 384.803 256 384.803C279.738 384.803 301.978 378.386 321.062 367.183L391.636 424.959Z" fill="#28B446"/>
<path d="M394.303 89.2078L324.11 146.674C304.359 134.329 281.013 127.197 256 127.197C199.522 127.197 151.532 163.555 134.15 214.141L63.5641 156.353H63.5522C99.6134 86.8269 172.259 39.3252 256 39.3252C308.573 39.3252 356.778 58.0523 394.303 89.2078Z" fill="#F14336"/>
</svg>
