<svg width="512" height="512" viewBox="0 0 512 512" fill="none" xmlns="http://www.w3.org/2000/svg">
<g clip-path="url(#clip0_1027_455)">
<path d="M85.932 426.667C85.932 379.539 124.137 341.334 171.265 341.334L216.74 317.325L256.598 341.334V426.667C256.598 473.796 218.393 512 171.265 512C124.137 512 85.932 473.795 85.932 426.667Z" fill="#00CF7F"/>
<path d="M256.599 0L210.165 80.67L256.599 170.666H340.735C387.864 170.666 426.068 132.461 426.068 85.333C426.068 38.205 387.863 0 340.735 0H256.599Z" fill="#FF7361"/>
<path d="M84.734 85.333C84.734 132.461 122.939 170.666 170.067 170.666L215.334 188.15L256.597 170.666V0H170.066C122.939 0 84.734 38.205 84.734 85.333Z" fill="#FF4D12"/>
<path d="M85.932 256C85.932 303.129 124.137 341.333 171.265 341.333H256.598V170.666H171.265C124.137 170.666 85.932 208.872 85.932 256Z" fill="#B659FF"/>
<path d="M276.486 209.439L301.974 255.303L303.162 257.439H278.203C278.472 269.187 282.047 280.631 288.536 290.451C295.288 300.671 304.897 308.682 316.166 313.485C327.434 318.289 339.866 319.674 351.916 317.469C363.965 315.264 375.1 309.566 383.937 301.083L385.284 299.79L386.191 301.422L394.157 315.765L394.724 316.785L393.841 317.55C379.081 330.34 360.198 337.367 340.667 337.34V337.341L340.667 337.34L340.666 337.341V337.34C295.743 337.339 259.328 300.924 259.328 256.001C259.328 238.629 264.778 222.522 274.051 209.312L275.371 207.433L276.486 209.439ZM340.668 174.662C385.592 174.662 422.007 211.077 422.007 256.001C422.007 273.373 416.558 289.481 407.285 302.691L405.965 304.57L404.85 302.563L379.362 256.7L378.174 254.563H403.132C402.863 242.816 399.288 231.372 392.799 221.552C386.047 211.331 376.439 203.321 365.17 198.518C353.902 193.714 341.47 192.328 329.42 194.533C317.371 196.738 306.235 202.437 297.398 210.92L296.051 212.213L295.145 210.58L287.179 196.238L286.612 195.218L287.495 194.453C302.255 181.663 321.138 174.634 340.669 174.661L340.668 174.662Z" fill="#00BCFF" stroke="#00BCFF" stroke-width="2.87646"/>
</g>
<defs>
<clipPath id="clip0_1027_455">
<rect width="512" height="512" fill="white"/>
</clipPath>
</defs>
</svg>
