<svg width="39" height="39" viewBox="0 0 39 39" fill="none" xmlns="http://www.w3.org/2000/svg">
<g clip-path="url(#clip0_1184_29)">
<path d="M22.6328 0.916016H10.1807C4.65782 0.916016 0.180664 5.39317 0.180664 10.916V23.3681C0.180664 28.891 4.65782 33.3681 10.1807 33.3681H22.6328C28.1556 33.3681 32.6328 28.891 32.6328 23.3681V10.916C32.6328 5.39317 28.1556 0.916016 22.6328 0.916016Z" fill="#007AFF" fill-opacity="0.5"/>
<path d="M28.6328 5.91602H16.1807C10.6578 5.91602 6.18066 10.3932 6.18066 15.916V28.3681C6.18066 33.891 10.6578 38.3681 16.1807 38.3681H28.6328C34.1556 38.3681 38.6328 33.891 38.6328 28.3681V15.916C38.6328 10.3932 34.1556 5.91602 28.6328 5.91602Z" fill="#007AFF"/>
<path d="M13.9413 23.6342L22.8209 13.4566C23.1095 13.1259 23.6538 13.3299 23.6538 13.7689V19.0813C23.6538 19.3436 23.8665 19.5563 24.1288 19.5563H30.5395C30.9432 19.5563 31.1628 20.028 30.903 20.337L22.1205 30.7824C21.8353 31.1217 21.282 30.92 21.282 30.4768V24.8965C21.282 24.6341 21.0693 24.4215 20.807 24.4215H14.2992C13.8914 24.4215 13.6732 23.9415 13.9413 23.6342Z" fill="white"/>
</g>
<defs>
<clipPath id="clip0_1184_29">
<rect width="39" height="39" fill="white"/>
</clipPath>
</defs>
</svg>
