<svg width="39" height="39" viewBox="0 0 39 39" fill="none" xmlns="http://www.w3.org/2000/svg">
<g clip-path="url(#clip0_1184_47)">
<path d="M22.6328 0.916016H10.1807C4.65782 0.916016 0.180664 5.39317 0.180664 10.916V23.3681C0.180664 28.891 4.65782 33.3681 10.1807 33.3681H22.6328C28.1556 33.3681 32.6328 28.891 32.6328 23.3681V10.916C32.6328 5.39317 28.1556 0.916016 22.6328 0.916016Z" fill="#007AFF" fill-opacity="0.5"/>
<path d="M28.6328 5.91602H16.1807C10.6578 5.91602 6.18066 10.3932 6.18066 15.916V28.3681C6.18066 33.891 10.6578 38.3681 16.1807 38.3681H28.6328C34.1556 38.3681 38.6328 33.891 38.6328 28.3681V15.916C38.6328 10.3932 34.1556 5.91602 28.6328 5.91602Z" fill="#007AFF"/>
<g clip-path="url(#clip1_1184_47)">
<path d="M22.4443 22.4091C22.4443 20.5015 23.9907 18.9551 25.8983 18.9551C27.8059 18.9551 29.3523 20.5015 29.3523 22.4091C29.3523 24.3167 27.8059 25.8631 25.8983 25.8631C23.9907 25.8631 22.4443 24.3167 22.4443 22.4091Z" fill="white"/>
<path d="M25.8593 11.5872C25.9486 11.5803 26.0391 11.5762 26.1301 11.5762C28.0375 11.5763 29.5835 13.123 29.5835 15.0305C29.5833 16.9379 28.0374 18.4837 26.1301 18.4839C26.039 18.4839 25.9486 18.4789 25.8593 18.472V18.4848H22.8638C22.76 18.4848 22.6758 18.4006 22.6758 18.2968V11.7642C22.6758 11.6603 22.76 11.5762 22.8638 11.5762H25.8593V11.5872Z" fill="white"/>
<path d="M19.023 11.5872C18.9338 11.5803 18.8433 11.5762 18.7522 11.5762C16.8448 11.5763 15.2988 13.123 15.2988 15.0305C15.299 16.9379 16.8449 18.4837 18.7522 18.4839C18.8433 18.4839 18.9337 18.4789 19.023 18.472V18.4848H22.0185C22.1224 18.4848 22.2065 18.4006 22.2065 18.2968V11.7642C22.2065 11.6603 22.1224 11.5762 22.0185 11.5762H19.023V11.5872Z" fill="white"/>
<path d="M19.023 18.9661C18.9338 18.9592 18.8433 18.9551 18.7522 18.9551C16.8448 18.9553 15.2988 20.502 15.2988 22.4094C15.299 24.3168 16.8449 25.8626 18.7522 25.8628C18.8433 25.8628 18.9337 25.8578 19.023 25.8509V25.8637H22.0185C22.1224 25.8637 22.2065 25.7795 22.2065 25.6757V19.1431C22.2065 19.0392 22.1224 18.9551 22.0185 18.9551H19.023V18.9661Z" fill="white"/>
<path d="M19.023 26.3489C18.9338 26.342 18.8433 26.3379 18.7522 26.3379C16.8448 26.3381 15.2988 27.8848 15.2988 29.7922C15.299 31.6996 16.8449 33.2454 18.7522 33.2456C20.5442 33.2456 22.018 31.8813 22.19 30.1346H22.2065V26.5259C22.2065 26.4221 22.1224 26.3379 22.0185 26.3379H19.023V26.3489Z" fill="white"/>
</g>
</g>
<defs>
<clipPath id="clip0_1184_47">
<rect width="39" height="39" fill="white"/>
</clipPath>
<clipPath id="clip1_1184_47">
<rect width="15.98" height="22.56" fill="white" transform="translate(14.416 10.8633)"/>
</clipPath>
</defs>
</svg>
