<svg width="39" height="39" viewBox="0 0 39 39" fill="none" xmlns="http://www.w3.org/2000/svg">
<g clip-path="url(#clip0_1184_35)">
<path d="M22.6328 0.916016H10.1807C4.65782 0.916016 0.180664 5.39317 0.180664 10.916V23.3681C0.180664 28.891 4.65782 33.3681 10.1807 33.3681H22.6328C28.1556 33.3681 32.6328 28.891 32.6328 23.3681V10.916C32.6328 5.39317 28.1556 0.916016 22.6328 0.916016Z" fill="#007AFF" fill-opacity="0.5"/>
<path d="M28.6328 5.91602H16.1807C10.6578 5.91602 6.18066 10.3932 6.18066 15.916V28.3681C6.18066 33.891 10.6578 38.3681 16.1807 38.3681H28.6328C34.1556 38.3681 38.6328 33.891 38.6328 28.3681V15.916C38.6328 10.3932 34.1556 5.91602 28.6328 5.91602Z" fill="#007AFF"/>
<path d="M18.8311 12.1641H25.9854C26.9046 12.2272 27.6997 12.534 28.3652 13.0869C30.4442 14.815 30.2918 17.9474 28.1299 19.5137C28.1919 19.5605 28.2659 19.6151 28.3486 19.6816C29.5711 20.6648 30.1078 22.2985 29.7139 23.8193C29.2832 25.4825 27.8587 26.7003 26.1396 26.8457C25.0111 26.9412 24.0142 26.6429 23.1543 25.9521C23.1527 27.1405 23.1531 28.1695 23.1562 29.0391C23.1582 29.4849 23.136 29.8411 23.0889 30.1045C22.985 30.6881 22.7665 31.2164 22.4336 31.6885C21.6653 32.7775 20.5931 33.371 19.2256 33.4668L19.2188 33.4678V33.4668H18.8369C17.7153 33.3907 16.7814 32.953 16.041 32.1543C14.3663 30.3469 14.7196 27.5184 16.6865 26.1152C14.4079 24.5095 14.4067 21.1184 16.6865 19.5127C14.6499 18.0596 14.3778 15.1646 16.1484 13.3623C16.8626 12.6356 17.7564 12.2365 18.8242 12.1641L18.8311 12.1631V12.1641ZM19.5361 26.8613C18.999 26.8594 18.6446 26.8808 18.4629 26.9219C16.6746 27.3278 15.8486 29.4783 16.9775 30.9434C17.2917 31.3513 17.6777 31.6389 18.1357 31.8096C19.6301 32.3659 21.2578 31.4572 21.6016 29.9268L21.6299 29.7578C21.6537 29.5609 21.6653 29.2795 21.6641 28.9102C21.662 28.2016 21.661 27.6692 21.6602 27.3135C21.6597 27.1358 21.6593 27.0017 21.6592 26.9121C21.6591 26.8949 21.6592 26.8792 21.6592 26.8652C21.5644 26.8655 21.4018 26.8667 21.1748 26.8662C20.8059 26.8655 20.2596 26.8638 19.5361 26.8613ZM25.7432 20.252C25.0532 20.2544 24.392 20.5272 23.9062 21.0098C23.4207 21.4922 23.15 22.145 23.1523 22.8242C23.1547 23.5035 23.43 24.1547 23.9189 24.6338C24.4081 25.1129 25.0708 25.3813 25.7607 25.3789C26.4506 25.3765 27.1109 25.1035 27.5967 24.6211C28.0823 24.1387 28.3539 23.4859 28.3516 22.8066C28.3492 22.1273 28.0731 21.4761 27.584 20.9971C27.095 20.5181 26.4329 20.2496 25.7432 20.252ZM19.0449 20.2588C18.3588 20.26 17.7008 20.5303 17.2168 21.0107C16.733 21.491 16.4619 22.1418 16.4629 22.8193C16.4635 23.155 16.5307 23.4879 16.6611 23.7979C16.7915 24.1077 16.9832 24.3889 17.2236 24.626C17.4641 24.863 17.7495 25.0517 18.0635 25.1797C18.3773 25.3076 18.7142 25.3727 19.0537 25.3721L21.665 25.3682L21.6562 20.2539L19.0449 20.2588ZM23.1494 18.7656L25.7588 18.7705C26.0987 18.7711 26.4358 18.7052 26.75 18.5771C27.0642 18.4491 27.3493 18.2605 27.5898 18.0234C27.8304 17.7864 28.0219 17.5052 28.1523 17.1953C28.2828 16.8853 28.35 16.5525 28.3506 16.2168C28.3516 15.5392 28.0807 14.8886 27.5967 14.4082C27.1124 13.9277 26.4542 13.6564 25.7676 13.6553L23.1572 13.6514L23.1494 18.7656ZM19.0566 13.6533C18.7166 13.6527 18.3797 13.7187 18.0654 13.8467C17.7511 13.9747 17.4654 14.1633 17.2246 14.4004C16.9839 14.6374 16.7926 14.9187 16.6621 15.2285C16.5316 15.5385 16.4635 15.8714 16.4629 16.207C16.4618 16.8847 16.7334 17.5352 17.2178 18.0156C17.7024 18.4962 18.3608 18.7674 19.0479 18.7686L21.6562 18.7715L21.665 13.6572L19.0566 13.6533Z" fill="white" stroke="white" stroke-width="0.2"/>
</g>
<defs>
<clipPath id="clip0_1184_35">
<rect width="39" height="39" fill="white"/>
</clipPath>
</defs>
</svg>
