<svg width="24" height="24" viewBox="0 0 24 24" fill="none" xmlns="http://www.w3.org/2000/svg">
<path d="M1.29338 22.7077C1.68438 23.0987 2.31638 23.0987 2.70738 22.7077L8.88238 16.5327C9.06938 17.6667 9.12138 19.3907 8.44838 21.5007C8.28138 22.0267 8.57138 22.5897 9.09738 22.7567C9.62638 22.9237 10.1864 22.6337 10.3544 22.1077C11.8174 17.5137 10.3454 14.3257 10.2824 14.1917C10.1834 13.9837 10.0154 13.8157 9.80738 13.7167C9.71738 13.6747 8.25638 12.9997 5.91938 12.9997C4.77038 12.9997 3.40738 13.1637 1.89238 13.6457C1.36638 13.8127 1.07638 14.3757 1.24338 14.9017C1.41138 15.4277 1.97038 15.7187 2.50038 15.5507C4.61238 14.8787 6.33538 14.9307 7.46838 15.1167L1.29338 21.2917C0.902384 21.6827 0.902384 22.3147 1.29338 22.7057V22.7077Z" fill="black"/>
<path d="M22.7068 1.29224C22.3158 0.901244 21.6838 0.901244 21.2928 1.29224L15.1178 7.46724C14.9308 6.33324 14.8788 4.60924 15.5518 2.49924C15.7188 1.97324 15.4288 1.41024 14.9028 1.24324C14.3738 1.07624 13.8138 1.36624 13.6458 1.89224C12.1827 6.48624 13.6548 9.67424 13.7178 9.80824C13.8168 10.0162 13.9848 10.1842 14.1928 10.2832C14.2828 10.3252 15.7437 11.0002 18.0807 11.0002C19.2297 11.0002 20.5928 10.8362 22.1077 10.3542C22.6338 10.1872 22.9238 9.62424 22.7568 9.09824C22.5888 8.57224 22.0298 8.28124 21.4998 8.44924C19.3878 9.12124 17.6647 9.06924 16.5317 8.88324L22.7068 2.70824C23.0978 2.31724 23.0978 1.68524 22.7068 1.29424V1.29224Z" fill="black"/>
</svg>
