<svg width="512" height="512" viewBox="0 0 512 512" fill="none" xmlns="http://www.w3.org/2000/svg">
<g clip-path="url(#clip0_383_125)">
<path d="M442.44 294.188L406.326 294.206" stroke="#F9CC47" stroke-width="4.43778"/>
<path d="M406.325 294.205C406.278 284.022 406.284 273.919 406.343 263.895C406.379 257.961 406.172 254.36 405.722 253.094C404.414 249.431 402.062 246.709 398.666 244.928C397.056 244.088 392.533 243.674 385.095 243.686C349.836 243.739 264.95 243.745 130.438 243.704C126.568 243.704 123.627 244.115 121.616 244.937C115.361 247.505 112.681 252.973 113.574 261.339" stroke="#FBD56C" stroke-width="4.43778"/>
<path d="M113.574 261.34C112.207 261.435 110.82 261.5 109.411 261.535C103.82 261.704 99.2934 264.26 96.8703 269.204C96.0538 270.866 95.6455 274.564 95.6455 280.298C95.6514 324.628 95.6544 368.959 95.6544 413.289" stroke="#FBDC7C" stroke-width="4.43778"/>
<path d="M95.6548 413.289C95.5128 414.626 95.3323 415.591 95.1134 416.183C83.6225 446.992 72.1346 477.802 60.6496 508.612C60.6263 508.682 60.5837 508.749 60.5253 508.808C60.1526 509.163 59.8035 509.299 59.478 509.216" stroke="#F9CC47" stroke-width="4.43778"/>
<path d="M406.326 294.207L388.805 294.153" stroke="#FDE1A1" stroke-width="4.43778"/>
<path d="M388.806 294.153C388.539 288.402 388.462 282.677 388.575 276.979C388.735 268.761 385.101 263.725 377.676 261.873C375.563 261.349 372.492 261.518 370.691 261.518C302.81 261.512 218.57 261.429 117.968 261.27C116.489 261.27 115.024 261.293 113.575 261.341" stroke="#FFF1D6" stroke-width="4.43778"/>
<path d="M388.805 294.153C314.984 294.195 241.13 294.198 167.244 294.162C159.008 294.156 153.718 294.538 151.375 295.307C146.115 297.029 141.721 300.005 138.195 304.236C136.337 306.467 133.952 311.594 131.041 319.617C128.118 327.694 116.456 359.019 96.0537 413.592C96.0427 413.619 96.0246 413.643 96.0014 413.661C95.9782 413.68 95.9508 413.691 95.9222 413.695C95.8937 413.699 95.8651 413.694 95.8398 413.682C95.8144 413.67 95.7932 413.651 95.7786 413.627C95.7253 413.544 95.6839 413.432 95.6543 413.29" stroke="#FDE8B1" stroke-width="4.43778"/>
<path d="M442.44 294.188L406.326 294.206C406.278 284.023 406.284 273.92 406.344 263.896C406.379 257.961 406.172 254.361 405.722 253.095C404.415 249.432 402.062 246.71 398.666 244.929C397.057 244.089 392.533 243.675 385.095 243.687C349.836 243.74 264.95 243.746 130.438 243.704C126.568 243.704 123.628 244.116 121.616 244.938C115.362 247.506 112.681 252.973 113.575 261.34C112.208 261.435 110.82 261.5 109.412 261.535C103.82 261.704 99.2939 264.26 96.8709 269.204C96.0543 270.866 95.646 274.565 95.646 280.298C95.6519 324.629 95.6549 368.959 95.6549 413.289C95.5129 414.627 95.3324 415.591 95.1135 416.183C83.6226 446.993 72.1347 477.803 60.6497 508.613C60.6265 508.683 60.5839 508.75 60.5255 508.808C60.1527 509.163 59.8036 509.299 59.4782 509.216C59.4722 406.698 59.49 304.179 59.5314 201.661C59.5403 189.989 66.9958 179.96 77.6908 176.365C80.3475 175.466 85.5072 175.025 93.1697 175.043C134.323 175.132 162.961 175.132 179.085 175.043C185.813 175.008 191.035 175.445 194.75 176.357C201.951 178.132 208.682 181.365 214.942 186.058C232.824 199.471 244.146 207.906 248.909 211.362C257.524 217.604 267.131 220.731 277.728 220.743C339.372 220.791 385.447 220.805 415.956 220.788C427.574 220.779 437.568 228.385 441.198 239.24C442.008 241.672 442.423 245.944 442.44 252.056C442.476 265.955 442.476 279.999 442.44 294.188Z" fill="#F6C012"/>
<path d="M406.325 294.206L388.805 294.153C388.539 288.402 388.462 282.677 388.574 276.979C388.734 268.76 385.101 263.725 377.675 261.873C375.563 261.349 372.492 261.518 370.69 261.518C302.81 261.512 218.569 261.429 117.968 261.269C116.488 261.269 115.024 261.293 113.574 261.34C112.681 252.974 115.361 247.506 121.616 244.938C123.627 244.116 126.568 243.705 130.438 243.705C264.95 243.746 349.836 243.74 385.095 243.687C392.533 243.675 397.056 244.089 398.666 244.929C402.062 246.71 404.414 249.432 405.722 253.095C406.172 254.361 406.379 257.962 406.343 263.896C406.284 273.92 406.278 284.023 406.325 294.206Z" fill="#FFEAC5"/>
<path d="M388.805 294.152C314.984 294.194 241.131 294.197 167.245 294.161C159.008 294.155 153.718 294.537 151.375 295.306C146.115 297.028 141.721 300.004 138.195 304.235C136.337 306.466 133.952 311.593 131.041 319.616C128.118 327.693 116.456 359.018 96.0538 413.591C96.0428 413.618 96.0247 413.642 96.0015 413.661C95.9783 413.679 95.9509 413.69 95.9223 413.694C95.8938 413.698 95.8652 413.693 95.8398 413.681C95.8145 413.669 95.7933 413.65 95.7786 413.626C95.7254 413.543 95.684 413.431 95.6544 413.289C95.6544 368.959 95.6514 324.628 95.6455 280.298C95.6455 274.564 96.0538 270.866 96.8703 269.203C99.2934 264.26 103.82 261.703 109.411 261.535C110.82 261.499 112.207 261.434 113.574 261.34C115.024 261.292 116.488 261.269 117.968 261.269C218.569 261.428 302.81 261.511 370.69 261.517C372.492 261.517 375.563 261.348 377.675 261.872C385.101 263.724 388.734 268.76 388.574 276.978C388.462 282.676 388.539 288.401 388.805 294.152Z" fill="#FFF7E6"/>
<path d="M442.44 294.189C455.115 294.207 467.789 294.221 480.463 294.233C486.777 294.239 491.282 294.701 493.981 295.618C505.128 299.408 512.433 310.546 511.98 321.952C511.868 324.703 510.246 330.274 507.116 338.664C474.638 425.633 456.183 475.182 451.751 487.312C449.041 494.726 446.769 499.554 444.934 501.797C438.446 509.723 430.201 511.924 420.003 511.968C411.311 511.998 291.293 512.007 59.9484 511.995C59.826 511.995 59.7086 511.946 59.6221 511.86C59.5355 511.773 59.4869 511.656 59.4869 511.533L59.478 509.217C59.8035 509.3 60.1526 509.164 60.5253 508.808C60.5837 508.75 60.6263 508.683 60.6496 508.613C72.1346 477.803 83.6225 446.993 95.1134 416.183C95.3323 415.592 95.5128 414.627 95.6548 413.29C95.6843 413.432 95.7258 413.544 95.779 413.627C95.7937 413.651 95.8149 413.67 95.8402 413.682C95.8656 413.694 95.8942 413.699 95.9227 413.695C95.9513 413.691 95.9787 413.68 96.0019 413.661C96.0251 413.643 96.0432 413.619 96.0542 413.592C116.456 359.019 128.119 327.694 131.042 319.617C133.953 311.594 136.337 306.467 138.195 304.236C141.722 300.005 146.115 297.029 151.375 295.307C153.719 294.538 159.008 294.156 167.245 294.162C241.131 294.198 314.984 294.195 388.805 294.153L406.326 294.207L442.44 294.189Z" fill="#FBD87C"/>
</g>
<defs>
<clipPath id="clip0_383_125">
<rect width="512" height="512" fill="white"/>
</clipPath>
</defs>
</svg>
