<svg width="512" height="512" viewBox="0 0 512 512" fill="none" xmlns="http://www.w3.org/2000/svg">
<g clip-path="url(#clip0_1027_467)">
<mask id="mask0_1027_467" style="mask-type:luminance" maskUnits="userSpaceOnUse" x="0" y="0" width="512" height="512">
<path d="M512 0H0V512H512V0Z" fill="white"/>
</mask>
<g mask="url(#mask0_1027_467)">
<path d="M275.543 223.726L242.287 198.991C234.428 193.2 224.997 190.057 215.236 190.057H124.072C110.34 190.057 99.2548 201.142 99.2548 214.874V504H424.548C437.123 504 447.215 493.825 447.215 481.333V257.478C447.215 243.745 436.13 232.66 422.398 232.66H302.677C292.915 232.66 283.402 229.517 275.543 223.726Z" fill="#F6C012"/>
<path d="M155.961 268.135H404.137C411.003 268.135 416.546 273.677 416.546 280.544V445.995C416.546 452.861 411.003 458.403 404.137 458.403H155.961C149.094 458.403 143.552 452.861 143.552 445.995V280.544C143.552 273.677 149.094 268.135 155.961 268.135Z" fill="#FFEAC5"/>
<path d="M168.827 317.289L99.2548 503.918H430.091C440.432 503.918 449.697 497.465 453.337 487.787L510.418 334.579C516.456 318.365 504.461 301.075 487.172 301.075H192.073C181.732 301.158 172.467 307.528 168.827 317.289Z" fill="#FBD87C"/>
</g>
</g>
<defs>
<clipPath id="clip0_1027_467">
<rect width="512" height="512" fill="white"/>
</clipPath>
</defs>
</svg>
