<svg width="512" height="512" viewBox="0 0 512 512" fill="none" xmlns="http://www.w3.org/2000/svg">
<path d="M400.39 0C404.436 0.946667 406.893 3.11667 407.76 6.51C408.453 9.25667 408.233 11.53 407.1 13.33C372.046 68.83 334.923 127.563 295.73 189.53C294.056 192.177 293.15 194.237 293.01 195.71C292.55 200.6 296.74 205.58 301.51 205.58C369.283 205.627 403.936 205.623 405.47 205.57C410.18 205.43 414.68 206.67 416.22 211.27C417.493 215.09 417.066 218.147 414.94 220.44C382.5 255.467 293.893 351.11 149.12 507.37C146.733 509.95 144.293 511.493 141.8 512H140.09C135.583 510.927 132.946 508.683 132.18 505.27C131.726 503.277 132.306 499.707 133.92 494.56C147.9 449.78 165.436 393.433 186.53 325.52C188.52 319.11 184.2 313.29 177.53 313.29C135.13 313.257 112.67 313.267 110.15 313.32C104.236 313.453 100.613 313 99.2795 311.96C94.3195 308.09 94.6095 304.57 96.2395 298.17C97.7795 292.117 121.673 196.99 167.92 12.79C169.65 5.89 170.15 1.66 176.88 0H400.39Z" fill="url(#paint0_linear_381_88)"/>
<defs>
<linearGradient id="paint0_linear_381_88" x1="256.055" y1="0" x2="256.055" y2="512" gradientUnits="userSpaceOnUse">
<stop stop-color="#FFCF4A"/>
<stop offset="1" stop-color="#FBD87C"/>
</linearGradient>
</defs>
</svg>
