<?xml version="1.0" encoding="UTF-8" standalone="no"?>
<!DOCTYPE svg PUBLIC "-//W3C//DTD SVG 1.1//EN" "http://www.w3.org/Graphics/SVG/1.1/DTD/svg11.dtd">
<svg xmlns="http://www.w3.org/2000/svg" version="1.1" viewBox="0.00 0.00 512.00 512.00">
<path fill="#ffcf4a" d="
  M 400.39 0.00
  Q 406.46 1.42 407.76 6.51
  Q 408.80 10.63 407.10 13.33
  Q 354.52 96.58 295.73 189.53
  Q 293.22 193.50 293.01 195.71
  C 292.55 200.60 296.74 205.58 301.51 205.58
  Q 403.17 205.65 405.47 205.57
  C 410.18 205.43 414.68 206.67 416.22 211.27
  Q 418.13 217.00 414.94 220.44
  Q 366.28 272.98 149.12 507.37
  Q 145.54 511.24 141.80 512.00
  L 140.09 512.00
  Q 133.33 510.39 132.18 505.27
  Q 131.50 502.28 133.92 494.56
  Q 154.89 427.39 186.53 325.52
  C 188.52 319.11 184.20 313.29 177.53 313.29
  Q 113.93 313.24 110.15 313.32
  Q 101.28 313.52 99.28 311.96
  C 94.32 308.09 94.61 304.57 96.24 298.17
  Q 98.55 289.09 167.92 12.79
  C 169.65 5.89 170.15 1.66 176.88 0.00
  L 400.39 0.00
  Z"
/>
</svg>
