<svg width="512" height="512" viewBox="0 0 512 512" fill="none" xmlns="http://www.w3.org/2000/svg">
<path d="M412.702 206.668L376.587 206.686" stroke="#F9CC47" stroke-width="4.43778"/>
<path d="M376.587 206.685C376.539 196.502 376.545 186.398 376.604 176.375C376.64 170.44 376.433 166.84 375.983 165.573C374.675 161.911 372.323 159.189 368.927 157.408C367.318 156.568 362.794 156.153 355.356 156.165C320.097 156.219 235.211 156.224 100.699 156.183C96.8293 156.183 93.8885 156.594 91.8767 157.417C85.6224 159.985 82.942 165.452 83.8355 173.819" stroke="#FBD56C" stroke-width="4.43778"/>
<path d="M83.8353 173.819C82.4685 173.914 81.081 173.979 79.6727 174.015C74.0811 174.183 69.5546 176.739 67.1316 181.683C66.315 183.346 65.9067 187.044 65.9067 192.778C65.9127 237.108 65.9156 281.438 65.9156 325.769" stroke="#FBDC7C" stroke-width="4.43778"/>
<path d="M65.916 325.769C65.774 327.106 65.5935 328.07 65.3746 328.662C53.8837 359.472 42.3958 390.282 30.9108 421.092C30.8876 421.162 30.845 421.229 30.7866 421.287C30.4138 421.642 30.0647 421.778 29.7393 421.696" stroke="#F9CC47" stroke-width="4.43778"/>
<path d="M376.587 206.686L359.066 206.633" stroke="#FDE1A1" stroke-width="4.43778"/>
<path d="M359.067 206.633C358.801 200.882 358.724 195.157 358.836 189.459C358.996 181.24 355.363 176.205 347.937 174.353C345.824 173.829 342.754 173.998 340.952 173.998C273.072 173.992 188.831 173.909 88.2293 173.749C86.7501 173.749 85.2856 173.773 83.8359 173.82" stroke="#FFF1D6" stroke-width="4.43778"/>
<path d="M359.066 206.633C285.245 206.674 211.392 206.677 137.506 206.642C129.269 206.636 123.979 207.017 121.636 207.787C116.376 209.508 111.983 212.485 108.456 216.715C106.598 218.946 104.214 224.073 101.302 232.097C98.3793 240.174 86.7169 271.498 66.3149 326.071C66.304 326.098 66.2859 326.123 66.2626 326.141C66.2394 326.159 66.212 326.171 66.1835 326.174C66.1549 326.178 66.1264 326.174 66.101 326.162C66.0756 326.15 66.0544 326.131 66.0398 326.107C65.9865 326.024 65.9451 325.911 65.9155 325.769" stroke="#FDE8B1" stroke-width="4.43778"/>
<path d="M412.702 206.668L376.587 206.686C376.54 196.502 376.546 186.399 376.605 176.376C376.64 170.441 376.433 166.84 375.983 165.574C374.676 161.911 372.324 159.19 368.927 157.409C367.318 156.568 362.794 156.154 355.357 156.166C320.097 156.219 235.211 156.225 100.699 156.184C96.8297 156.184 93.8889 156.595 91.8771 157.417C85.6228 159.985 82.9424 165.453 83.8359 173.819C82.469 173.914 81.0815 173.979 79.6732 174.015C74.0816 174.183 69.5551 176.74 67.1321 181.683C66.3155 183.346 65.9073 187.044 65.9073 192.778C65.9132 237.108 65.9161 281.438 65.9161 325.769C65.7741 327.106 65.5937 328.071 65.3747 328.662C53.8838 359.472 42.3959 390.282 30.911 421.092C30.8877 421.162 30.8451 421.229 30.7867 421.288C30.4139 421.643 30.0648 421.779 29.7394 421.696C29.7335 319.177 29.7512 216.659 29.7926 114.14C29.8015 102.469 37.257 92.4396 47.952 88.845C50.6088 87.9456 55.7684 87.5048 63.431 87.5225C104.584 87.6113 133.222 87.6113 149.346 87.5225C156.074 87.487 161.296 87.9249 165.012 88.8361C172.213 90.6112 178.943 93.8449 185.204 98.5371C203.085 111.951 214.407 120.386 219.17 123.841C227.785 130.084 237.392 133.211 247.989 133.223C309.633 133.27 355.709 133.285 386.217 133.267C397.835 133.258 407.829 140.865 411.459 151.719C412.27 154.151 412.684 158.423 412.702 164.536C412.737 178.435 412.737 192.479 412.702 206.668Z" fill="#F6C012"/>
<path d="M376.587 206.686L359.066 206.633C358.8 200.881 358.723 195.157 358.836 189.458C358.995 181.24 355.362 176.204 347.936 174.352C345.824 173.829 342.753 173.997 340.951 173.997C273.071 173.991 188.83 173.908 88.2289 173.749C86.7496 173.749 85.2852 173.772 83.8355 173.82C82.942 165.453 85.6224 159.986 91.8767 157.418C93.8885 156.595 96.8293 156.184 100.699 156.184C235.211 156.225 320.097 156.22 355.356 156.166C362.794 156.154 367.318 156.569 368.927 157.409C372.323 159.19 374.675 161.912 375.983 165.574C376.433 166.841 376.64 170.441 376.604 176.376C376.545 186.399 376.539 196.503 376.587 206.686Z" fill="#FFEAC5"/>
<path d="M359.066 206.632C285.245 206.673 211.392 206.676 137.506 206.641C129.269 206.635 123.979 207.017 121.636 207.786C116.376 209.508 111.983 212.484 108.456 216.715C106.598 218.945 104.214 224.072 101.302 232.096C98.3794 240.173 86.7169 271.497 66.315 326.07C66.304 326.098 66.2859 326.122 66.2627 326.14C66.2395 326.158 66.2121 326.17 66.1836 326.174C66.155 326.177 66.1264 326.173 66.1011 326.161C66.0757 326.149 66.0545 326.13 66.0399 326.106C65.9866 326.023 65.9452 325.91 65.9156 325.768C65.9156 281.438 65.9127 237.108 65.9067 192.777C65.9067 187.044 66.315 183.345 67.1316 181.683C69.5546 176.739 74.0811 174.183 79.6727 174.014C81.081 173.979 82.4685 173.914 83.8353 173.819C85.285 173.772 86.7495 173.748 88.2287 173.748C188.83 173.908 273.071 173.991 340.951 173.997C342.753 173.997 345.824 173.828 347.936 174.352C355.362 176.204 358.995 181.239 358.835 189.458C358.723 195.156 358.8 200.881 359.066 206.632Z" fill="#FFF7E6"/>
<path d="M412.701 206.668C425.376 206.686 438.05 206.701 450.724 206.713C457.038 206.719 461.544 207.18 464.242 208.097C475.389 211.887 482.694 223.026 482.241 234.431C482.129 237.182 480.508 242.753 477.378 251.144C444.899 338.112 426.444 387.661 422.012 399.791C419.302 407.205 417.03 412.034 415.195 414.276C408.707 422.202 400.462 424.403 390.264 424.448C381.572 424.477 261.554 424.486 30.2097 424.474C30.0873 424.474 29.9699 424.426 29.8833 424.339C29.7968 424.253 29.7481 424.135 29.7481 424.013L29.7393 421.696C30.0647 421.779 30.4138 421.643 30.7866 421.288C30.845 421.23 30.8876 421.163 30.9108 421.093C42.3958 390.283 53.8837 359.473 65.3746 328.663C65.5935 328.071 65.774 327.107 65.916 325.769C65.9456 325.911 65.987 326.024 66.0403 326.107C66.0549 326.131 66.0761 326.15 66.1015 326.162C66.1268 326.174 66.1554 326.178 66.1839 326.174C66.2125 326.171 66.2399 326.159 66.2631 326.141C66.2863 326.123 66.3044 326.098 66.3154 326.071C86.7173 271.498 98.3798 240.174 101.303 232.097C104.214 224.073 106.599 218.946 108.457 216.715C111.983 212.485 116.376 209.508 121.637 207.787C123.98 207.017 129.27 206.636 137.506 206.642C211.392 206.677 285.246 206.674 359.067 206.633L376.587 206.686L412.701 206.668Z" fill="#FBD87C"/>
</svg>
