<svg width="512" height="512" viewBox="0 0 512 512" fill="none" xmlns="http://www.w3.org/2000/svg">
<path d="M413.763 187.683C412.154 184.246 409.599 181.34 406.397 179.304C403.194 177.268 399.478 176.188 395.684 176.189H308.241L353.659 85.3342C355.179 82.2927 355.896 78.9132 355.743 75.5165C355.59 72.1198 354.572 68.8186 352.785 65.926C350.997 63.0334 348.501 60.6454 345.532 58.9886C342.562 57.3319 339.219 56.4613 335.819 56.4595H216.09C212.532 56.4593 209.039 57.4102 205.973 59.2135C202.907 61.0169 200.378 63.6073 198.649 66.7163L98.8745 246.31C97.1853 249.348 96.3188 252.774 96.3608 256.25C96.4028 259.725 97.3518 263.129 99.1139 266.125C100.876 269.121 103.39 271.605 106.407 273.33C109.424 275.056 112.839 275.964 116.315 275.963H211.161L176.659 431.272C175.693 435.638 176.22 440.201 178.157 444.231C180.095 448.26 183.329 451.522 187.341 453.494C191.354 455.466 195.913 456.033 200.286 455.105C204.66 454.176 208.595 451.806 211.46 448.374L411.009 208.915C413.438 206.003 414.987 202.46 415.475 198.7C415.962 194.939 415.369 191.118 413.763 187.683Z" fill="url(#paint0_linear_383_139)"/>
<defs>
<linearGradient id="paint0_linear_383_139" x1="137.128" y1="127.16" x2="334.961" y2="324.993" gradientUnits="userSpaceOnUse">
<stop stop-color="#FBD87C"/>
<stop offset="1" stop-color="#F6C012"/>
</linearGradient>
</defs>
</svg>
