<svg width="512" height="512" viewBox="0 0 512 512" fill="none" xmlns="http://www.w3.org/2000/svg">
<path d="M92.6305 0C96.3239 0.62 99.6505 2.41667 102.611 5.39C258.631 161.877 367.394 270.97 428.901 332.67C431.874 335.65 433.771 337.977 434.591 339.65C438.171 346.95 434.591 356.06 427.641 359.48C425.141 360.713 420.954 361.23 415.081 361.03C413.727 360.983 357.957 360.977 247.771 361.01C247.593 361.01 247.419 361.044 247.257 361.111C247.096 361.178 246.951 361.276 246.831 361.4C199.951 408.607 151.334 457.553 100.981 508.24C99.0539 510.18 96.1739 511.433 92.3405 512H89.8005C83.7539 510.98 79.6872 508.193 77.6005 503.64C76.5139 501.287 75.9739 496.62 75.9805 489.64C76.0139 332.773 76.0139 175.907 75.9805 19.04C75.9805 14.32 76.4672 10.8767 77.4405 8.71C79.5139 4.07667 83.4272 1.17333 89.1805 0H92.6305Z" fill="url(#paint0_linear_381_86)"/>
<defs>
<linearGradient id="paint0_linear_381_86" x1="255.99" y1="0" x2="255.99" y2="512" gradientUnits="userSpaceOnUse">
<stop stop-color="#FFCF4A"/>
<stop offset="1" stop-color="#FBD87C"/>
</linearGradient>
</defs>
</svg>
